<?xml version="1.0" encoding="UTF-8" standalone="no"?>
<svg
   version="1.1"
   preserveAspectRatio="xMidYMid meet"
   viewBox="344.5639097744361 330.27819548872174 111.73684210526318 91.21804511278197"
   width="53.87"
   height="43.61"
   id="svg26"
   sodipodi:docname="logo.svg"
   inkscape:version="1.1.2 (0a00cf5339, 2022-02-04)"
   xmlns:inkscape="http://www.inkscape.org/namespaces/inkscape"
   xmlns:sodipodi="http://sodipodi.sourceforge.net/DTD/sodipodi-0.dtd"
   xmlns:xlink="http://www.w3.org/1999/xlink"
   xmlns="http://www.w3.org/2000/svg"
   xmlns:svg="http://www.w3.org/2000/svg">
  <sodipodi:namedview
     id="namedview28"
     pagecolor="#505050"
     bordercolor="#ffffff"
     borderopacity="1"
     inkscape:pageshadow="0"
     inkscape:pageopacity="0"
     inkscape:pagecheckerboard="1"
     showgrid="false"
     inkscape:zoom="6.7775884"
     inkscape:cx="7.5248004"
     inkscape:cy="38.804363"
     inkscape:window-width="1920"
     inkscape:window-height="1011"
     inkscape:window-x="0"
     inkscape:window-y="0"
     inkscape:window-maximized="1"
     inkscape:current-layer="svg26" />
  <defs
     id="defs14">
    <path
       d="M453.3 331.28L453.3 359.85L388.64 418.5L388.64 388.42L453.3 331.28Z"
       id="aFZf6T5ED" />
    <linearGradient
       id="gradientb2ThqnP5Op"
       gradientUnits="userSpaceOnUse"
       x1="420.97"
       y1="331.28"
       x2="420.97"
       y2="418.5">
      <stop
         style="stop-color: #06b6d4;stop-opacity: 1"
         offset="0%"
         id="stop3" />
      <stop
         style="stop-color: #67e8f9;stop-opacity: 1"
         offset="100%"
         id="stop5" />
    </linearGradient>
    <path
       d="M410.23 331.28L410.23 359.85L345.56 418.5L345.56 388.42L410.23 331.28Z"
       id="a9fehgwfM" />
    <linearGradient
       id="gradientk1wNV9Ostb"
       gradientUnits="userSpaceOnUse"
       x1="377.89"
       y1="331.28"
       x2="377.89"
       y2="418.5">
      <stop
         style="stop-color: #06b6d4;stop-opacity: 1"
         offset="0%"
         id="stop9" />
      <stop
         style="stop-color: #67e8f9;stop-opacity: 1"
         offset="100%"
         id="stop11" />
    </linearGradient>
    <linearGradient
       inkscape:collect="always"
       xlink:href="#gradientb2ThqnP5Op"
       id="linearGradient2385"
       x1="359.42508"
       y1="375.81781"
       x2="435.06686"
       y2="375.81781"
       gradientUnits="userSpaceOnUse" />
  </defs>
  <path
     style="fill:url(#linearGradient2385);fill-opacity:1.0;stroke-width:1.52861"
     d="m 364.12307,412.70046 c -2.5839,-4.5162 -4.698,-8.72542 -4.698,-9.35384 0,-0.62841 2.45736,-5.18782 5.46079,-10.13203 l 5.4608,-8.98944 h 10.58957 c 5.82427,0 10.58957,-0.53159 10.58957,-1.18131 0,-0.64973 2.43099,-4.87259 5.4022,-9.38414 l 5.4022,-8.20283 -5.10231,-8.57699 -5.10232,-8.57699 5.22169,-8.78949 5.22171,-8.7895 h 11.16197 11.16199 l 4.95751,8.0252 c 2.72663,4.41385 4.95751,8.71305 4.95751,9.55379 0,0.84073 -2.22625,5.13241 -4.94723,9.53708 l -4.94722,8.00846 5.65858,9.31505 c 6.23485,10.26367 6.22331,10.43349 -1.54655,22.74172 l -3.90872,6.19184 h -11.35969 -11.35968 l -5.02864,8.40734 -5.02865,8.40734 h -11.75954 -11.75954 z m 40.93043,-25.4181 c 1.47155,0 3.50098,0.82546 4.50987,1.83433 1.3674,1.3674 1.83432,1.3806 1.83432,0.0519 0,-2.33662 -4.90169,-12.58811 -6.01539,-12.58072 -1.01181,0.007 -6.2351,12.31511 -6.16697,14.53211 0.0256,0.8319 0.74761,0.30876 1.60455,-1.16252 0.85696,-1.47129 2.76208,-2.67507 4.23362,-2.67507 z m -0.53454,-4.58582 c 0.51961,-0.84073 1.24808,-1.52861 1.61882,-1.52861 0.37075,0 0.67409,0.68788 0.67409,1.52861 0,0.84074 -0.72847,1.52861 -1.61882,1.52861 -0.89035,0 -1.19369,-0.68787 -0.67409,-1.52861 z m 19.76271,6.76955 c 2.63221,-2.63222 3.32724,-12.88398 0.87349,-12.88398 -0.84074,0 -1.52861,2.79934 -1.52861,6.22075 0,5.5768 -0.35603,6.17017 -3.43937,5.73228 -2.71683,-0.38586 -3.63463,-1.77297 -4.3689,-6.6029 l -0.92953,-6.11443 -0.21693,6.19086 c -0.31533,9.00012 4.40448,12.66279 9.60985,7.45742 z"
     id="path857" />
</svg>
